<svg width="63" height="56" viewBox="0 0 63 56" fill="none" xmlns="http://www.w3.org/2000/svg">
<rect x="51.1708" y="51.3804" width="50.8246" height="2.13605" rx="1.06802" transform="rotate(-90 51.1708 51.3804)" fill="#ADADAD"/>
<rect x="8.44986" y="0.555664" width="44.857" height="2.03298" rx="1.01649" fill="#ADADAD"/>
<rect x="8.44986" y="51.3799" width="50.8246" height="2.13605" rx="1.06802" transform="rotate(-90 8.44986 51.3799)" fill="#ADADAD"/>
<rect width="26.3528" height="2.06335" rx="1.03168" transform="matrix(0.85462 -0.519253 0.557044 0.830483 8.44984 50.5303)" fill="#ADADAD"/>
<rect width="26.4163" height="2.06271" rx="1.03136" transform="matrix(0.858055 0.513557 -0.551269 0.834328 30.4001 36.8218)" fill="#ADADAD"/>
<rect x="10.5859" y="2.58838" width="40.5849" height="36.5937" fill="#ADADAD"/>
<path d="M10.8881 31.8877L9.61184 50.2027L28.4705 39.4298L10.8881 31.8877Z" fill="#ADADAD"/>
<path d="M50.5075 31.724L31.9992 38.9077L52.6489 50.6382L50.5075 31.724Z" fill="#ADADAD"/>
</svg>
